<?xml version="1.0" encoding="UTF-8" ?>
<svg version="1.1" width="1280" height="1280" xmlns="http://www.w3.org/2000/svg" shape-rendering="crispEdges">
<rect x="720" y="0" width="80" height="80" fill="#BF3642" />
<rect x="400" y="80" width="160" height="160" fill="#1F0513" />
<rect x="560" y="80" width="80" height="80" fill="#472827" />
<rect x="640" y="80" width="80" height="80" fill="#BF3642" />
<rect x="720" y="80" width="80" height="80" fill="#8F2A32" />
<rect x="800" y="80" width="80" height="80" fill="#E19B8D" />
<rect x="880" y="80" width="80" height="80" fill="#535926" />
<rect x="960" y="80" width="80" height="80" fill="#747C3B" />
<rect x="240" y="160" width="80" height="80" fill="#472827" />
<rect x="320" y="160" width="80" height="160" fill="#1F0513" />
<rect x="560" y="160" width="80" height="320" fill="#1F0513" />
<rect x="640" y="160" width="80" height="80" fill="#64403F" />
<rect x="720" y="160" width="80" height="80" fill="#FCC0AF" />
<rect x="800" y="160" width="80" height="80" fill="#F49687" />
<rect x="880" y="160" width="80" height="80" fill="#E19B8D" />
<rect x="960" y="160" width="80" height="80" fill="#402120" />
<rect x="160" y="240" width="80" height="80" fill="#FCC0AF" />
<rect x="240" y="240" width="80" height="80" fill="#402120" />
<rect x="400" y="240" width="160" height="80" fill="#58153B" />
<rect x="640" y="240" width="80" height="80" fill="#472827" />
<rect x="720" y="240" width="80" height="80" fill="#64403F" />
<rect x="800" y="240" width="80" height="80" fill="#FCC0AF" />
<rect x="880" y="240" width="80" height="80" fill="#535926" />
<rect x="960" y="240" width="80" height="80" fill="#8F2A32" />
<rect x="1040" y="240" width="80" height="80" fill="#402120" />
<rect x="80" y="320" width="80" height="80" fill="#FCC0AF" />
<rect x="160" y="320" width="80" height="80" fill="#F49687" />
<rect x="240" y="320" width="80" height="80" fill="#FCC0AF" />
<rect x="320" y="320" width="160" height="80" fill="#58153B" />
<rect x="480" y="320" width="80" height="80" fill="#882C61" />
<rect x="640" y="320" width="80" height="80" fill="#402120" />
<rect x="720" y="320" width="80" height="160" fill="#472827" />
<rect x="800" y="320" width="80" height="80" fill="#64403F" />
<rect x="880" y="320" width="80" height="80" fill="#8F2A32" />
<rect x="960" y="320" width="80" height="80" fill="#BF3642" />
<rect x="1040" y="320" width="80" height="80" fill="#8F2A32" />
<rect x="80" y="400" width="80" height="80" fill="#747C3B" />
<rect x="160" y="400" width="80" height="80" fill="#FCC0AF" />
<rect x="240" y="400" width="80" height="80" fill="#535926" />
<rect x="320" y="400" width="160" height="80" fill="#882C61" />
<rect x="480" y="400" width="80" height="80" fill="#B4528A" />
<rect x="800" y="400" width="80" height="80" fill="#5B3837" />
<rect x="880" y="400" width="80" height="80" fill="#64403F" />
<rect x="960" y="400" width="80" height="80" fill="#8F2A32" />
<rect x="1040" y="400" width="80" height="80" fill="#535926" />
<rect x="1120" y="400" width="80" height="80" fill="#747C3B" />
<rect x="160" y="480" width="80" height="80" fill="#535926" />
<rect x="240" y="480" width="80" height="80" fill="#747C3B" />
<rect x="320" y="480" width="80" height="160" fill="#882C61" />
<rect x="400" y="480" width="80" height="160" fill="#B4528A" />
<rect x="480" y="480" width="160" height="80" fill="#E082B7" />
<rect x="640" y="480" width="80" height="80" fill="#472827" />
<rect x="720" y="480" width="80" height="80" fill="#5B3837" />
<rect x="800" y="480" width="80" height="80" fill="#64403F" />
<rect x="880" y="480" width="80" height="80" fill="#5B3837" />
<rect x="960" y="480" width="80" height="80" fill="#522F2E" />
<rect x="1040" y="480" width="80" height="80" fill="#402120" />
<rect x="160" y="560" width="80" height="80" fill="#1F0513" />
<rect x="240" y="560" width="80" height="80" fill="#882C61" />
<rect x="480" y="560" width="80" height="80" fill="#E082B7" />
<rect x="560" y="560" width="80" height="80" fill="#BF3642" />
<rect x="640" y="560" width="80" height="80" fill="#5B3837" />
<rect x="720" y="560" width="80" height="80" fill="#64403F" />
<rect x="800" y="560" width="80" height="80" fill="#5B3837" />
<rect x="880" y="560" width="80" height="80" fill="#64403F" />
<rect x="960" y="560" width="80" height="80" fill="#402120" />
<rect x="80" y="640" width="80" height="240" fill="#1F0513" />
<rect x="160" y="640" width="80" height="160" fill="#58153B" />
<rect x="240" y="640" width="160" height="80" fill="#B4528A" />
<rect x="400" y="640" width="80" height="80" fill="#E082B7" />
<rect x="480" y="640" width="80" height="80" fill="#BF3642" />
<rect x="560" y="640" width="80" height="80" fill="#8F2A32" />
<rect x="640" y="640" width="80" height="80" fill="#BF3642" />
<rect x="720" y="640" width="80" height="80" fill="#522F2E" />
<rect x="800" y="640" width="80" height="80" fill="#472827" />
<rect x="880" y="640" width="80" height="80" fill="#402120" />
<rect x="240" y="720" width="80" height="80" fill="#B4528A" />
<rect x="320" y="720" width="80" height="80" fill="#E082B7" />
<rect x="400" y="720" width="80" height="80" fill="#472827" />
<rect x="480" y="720" width="80" height="80" fill="#747C3B" />
<rect x="560" y="720" width="80" height="80" fill="#BF3642" />
<rect x="640" y="720" width="80" height="80" fill="#747C3B" />
<rect x="720" y="720" width="80" height="80" fill="#472827" />
<rect x="800" y="720" width="80" height="160" fill="#E082B7" />
<rect x="880" y="720" width="320" height="80" fill="#1F0513" />
<rect x="160" y="800" width="80" height="80" fill="#1F0513" />
<rect x="240" y="800" width="80" height="80" fill="#882C61" />
<rect x="320" y="800" width="80" height="80" fill="#472827" />
<rect x="400" y="800" width="80" height="80" fill="#5B3837" />
<rect x="480" y="800" width="80" height="80" fill="#535926" />
<rect x="560" y="800" width="80" height="80" fill="#522F2E" />
<rect x="640" y="800" width="80" height="80" fill="#402120" />
<rect x="720" y="800" width="80" height="80" fill="#535926" />
<rect x="880" y="800" width="80" height="80" fill="#B4528A" />
<rect x="960" y="800" width="80" height="80" fill="#882C61" />
<rect x="1040" y="800" width="80" height="80" fill="#58153B" />
<rect x="1120" y="800" width="160" height="160" fill="#1F0513" />
<rect x="240" y="880" width="80" height="80" fill="#472827" />
<rect x="320" y="880" width="80" height="80" fill="#402120" />
<rect x="400" y="880" width="80" height="80" fill="#64403F" />
<rect x="480" y="880" width="80" height="80" fill="#522F2E" />
<rect x="560" y="880" width="80" height="80" fill="#402120" />
<rect x="640" y="880" width="160" height="80" fill="#E082B7" />
<rect x="800" y="880" width="160" height="80" fill="#882C61" />
<rect x="960" y="880" width="80" height="160" fill="#58153B" />
<rect x="1040" y="880" width="80" height="160" fill="#1F0513" />
<rect x="160" y="960" width="80" height="80" fill="#472827" />
<rect x="240" y="960" width="80" height="80" fill="#FCC0AF" />
<rect x="320" y="960" width="80" height="80" fill="#64403F" />
<rect x="400" y="960" width="80" height="80" fill="#522F2E" />
<rect x="480" y="960" width="80" height="80" fill="#402120" />
<rect x="560" y="960" width="160" height="80" fill="#E082B7" />
<rect x="720" y="960" width="160" height="80" fill="#882C61" />
<rect x="880" y="960" width="80" height="80" fill="#58153B" />
<rect x="1120" y="960" width="80" height="80" fill="#1F0513" />
<rect x="80" y="1040" width="80" height="80" fill="#472827" />
<rect x="160" y="1040" width="80" height="80" fill="#FCC0AF" />
<rect x="240" y="1040" width="80" height="80" fill="#F49687" />
<rect x="320" y="1040" width="80" height="80" fill="#E19B8D" />
<rect x="400" y="1040" width="80" height="80" fill="#402120" />
<rect x="480" y="1040" width="160" height="80" fill="#B4528A" />
<rect x="640" y="1040" width="80" height="80" fill="#882C61" />
<rect x="720" y="1040" width="80" height="80" fill="#58153B" />
<rect x="800" y="1040" width="240" height="80" fill="#1F0513" />
<rect x="80" y="1120" width="80" height="80" fill="#402120" />
<rect x="160" y="1120" width="80" height="80" fill="#747C3B" />
<rect x="240" y="1120" width="80" height="80" fill="#E19B8D" />
<rect x="320" y="1120" width="80" height="80" fill="#535926" />
<rect x="480" y="1120" width="80" height="160" fill="#1F0513" />
<rect x="560" y="1120" width="160" height="80" fill="#58153B" />
<rect x="720" y="1120" width="80" height="80" fill="#1F0513" />
<rect x="320" y="1200" width="80" height="80" fill="#747C3B" />
<rect x="560" y="1200" width="160" height="80" fill="#1F0513" />
</svg>